<svg width="36" height="36" viewBox="0 0 36 36" fill="none" xmlns="http://www.w3.org/2000/svg">
<path d="M16.875 27C16.875 27.2984 16.9935 27.5845 17.2045 27.7955C17.4155 28.0065 17.7016 28.125 18 28.125C18.2984 28.125 18.5845 28.0065 18.7955 27.7955C19.0065 27.5845 19.125 27.2984 19.125 27V22.5C19.125 22.2016 19.0065 21.9155 18.7955 21.7045C18.5845 21.4935 18.2984 21.375 18 21.375C17.7016 21.375 17.4155 21.4935 17.2045 21.7045C16.9935 21.9155 16.875 22.2016 16.875 22.5V27Z" fill="#95A7D8" fill-opacity="0.9"/>
<path fill-rule="evenodd" clip-rule="evenodd" d="M18 1.875C16.938 1.875 15.9735 2.1795 14.925 2.688C13.914 3.18 12.744 3.906 11.2845 4.812L8.184 6.7365C6.804 7.5945 5.6955 8.2815 4.8435 8.934C3.96 9.609 3.282 10.299 2.7915 11.1945C2.3025 12.087 2.0835 13.038 1.977 14.1615C1.875 15.249 1.875 16.581 1.875 18.2505V20.67C1.875 23.526 1.875 25.7805 2.1045 27.543C2.3385 29.3505 2.8335 30.81 3.9495 31.9635C5.07 33.123 6.495 33.642 8.262 33.8865C9.972 34.125 12.159 34.125 14.913 34.125H21.087C23.841 34.125 26.028 34.125 27.738 33.8865C29.5035 33.642 30.93 33.123 32.052 31.9635C33.1665 30.81 33.6615 29.3505 33.897 27.543C34.125 25.7805 34.125 23.526 34.125 20.67V18.2505C34.125 16.581 34.125 15.2505 34.023 14.1615C33.918 13.0365 33.6975 12.087 33.2085 11.1945C32.718 10.299 32.0385 9.6105 31.1565 8.934C30.3045 8.28 29.1975 7.5945 27.816 6.7365L24.7155 4.812C23.256 3.906 22.086 3.18 21.0735 2.688C20.028 2.178 19.0635 1.875 18 1.875ZM12.42 6.756C13.9425 5.811 15.015 5.148 15.9105 4.7115C16.782 4.287 17.4 4.125 18 4.125C18.6 4.125 19.218 4.287 20.0895 4.7115C20.9865 5.1465 22.0575 5.811 23.58 6.756L26.58 8.6175C28.0215 9.513 29.034 10.1415 29.79 10.7205C30.5235 11.283 30.945 11.7465 31.2345 12.2745C31.524 12.804 31.6935 13.4235 31.782 14.3715C31.8735 15.3435 31.875 16.569 31.875 18.306V20.5875C31.875 23.5425 31.872 25.6515 31.665 27.252C31.461 28.824 31.0755 29.736 30.435 30.4005C29.7975 31.059 28.9305 31.4505 27.429 31.659C25.89 31.872 23.8605 31.875 21 31.875H15C12.138 31.875 10.11 31.872 8.571 31.659C7.0695 31.449 6.2025 31.059 5.5665 30.399C4.9245 29.736 4.539 28.824 4.3365 27.252C4.1265 25.6515 4.125 23.544 4.125 20.5875V18.306C4.125 16.569 4.125 15.3435 4.218 14.3715C4.3065 13.4235 4.476 12.804 4.7655 12.2745C5.055 11.7465 5.4765 11.283 6.2115 10.7205C6.966 10.1415 7.9785 9.513 9.42 8.6175L12.42 6.756Z" fill="#95A7D8" fill-opacity="0.9"/>
</svg>
